<svg width="1024" height="1024" viewBox="0 0 1024 1024" fill="none" xmlns="http://www.w3.org/2000/svg">
<mask id="mask0_324_660" style="mask-type:alpha" maskUnits="userSpaceOnUse" x="0" y="0" width="1024" height="1024">
<rect width="1024" height="1024" rx="238.21" fill="white"/>
</mask>
<g mask="url(#mask0_324_660)">
<rect width="1024" height="1024" rx="238.21" fill="white"/>
<path d="M1024 0H0V1024H1024V0Z" fill="url(#paint0_radial_324_660)"/>
<path d="M1024 0H0V1024H1024V0Z" fill="url(#paint1_radial_324_660)"/>
<path opacity="0.5" fill-rule="evenodd" clip-rule="evenodd" d="M711.528 846.101C698.946 857.539 682.934 864.402 665.774 864.402C626.884 864.402 596 832.376 596 794.628C596 760.315 621.163 731.718 654.335 726.001C671.492 668.807 748.128 659.656 779.01 709.986C809.895 648.222 902.544 663.09 910.549 731.72C949.439 729.433 983.752 761.46 983.752 801.494C983.752 842.671 947.149 874.697 905.973 870.121C897.967 899.861 870.514 920.449 839.628 920.449C812.175 920.449 789.3 905.58 777.864 883.846C750.411 884.991 724.103 870.121 711.518 846.1L711.528 846.101Z" fill="white"/>
<path opacity="0.5" fill-rule="evenodd" clip-rule="evenodd" d="M147.486 247.895C139.373 255.269 129.05 259.695 117.986 259.695C92.9121 259.695 73 239.046 73 214.708C73 192.585 89.2238 174.147 110.611 170.461C121.673 133.586 171.084 127.686 190.995 160.136C210.907 120.314 270.642 129.9 275.803 174.149C300.877 172.674 323 193.323 323 219.135C323 245.684 299.4 266.332 272.853 263.382C267.691 282.557 249.991 295.831 230.077 295.831C212.377 295.831 197.629 286.243 190.255 272.231C172.555 272.969 155.594 263.382 147.48 247.895L147.486 247.895Z" fill="white"/>
<path opacity="0.5" fill-rule="evenodd" clip-rule="evenodd" d="M30.5506 258.479C15.5694 272.097 -3.49506 280.269 -23.9254 280.269C-70.2291 280.269 -107 242.138 -107 197.195C-107 156.34 -77.0401 122.292 -37.5447 115.485C-17.117 47.3886 74.1272 36.4931 110.896 96.4182C147.668 22.8804 257.978 40.5822 267.508 122.294C313.812 119.571 354.666 157.703 354.666 205.369C354.666 254.396 311.085 292.526 262.061 287.078C252.529 322.487 219.843 347 183.069 347C150.383 347 123.147 329.296 109.531 303.419C76.8451 304.782 45.5227 287.078 30.5388 258.478L30.5506 258.479Z" fill="white"/>
<path fill-rule="evenodd" clip-rule="evenodd" d="M558.09 907.092C547.951 916.308 535.049 921.839 521.222 921.839C489.885 921.839 465 896.033 465 865.617C465 837.967 485.276 814.925 512.005 810.318C525.83 764.233 587.581 756.859 612.465 797.414C637.351 747.646 712.005 759.626 718.455 814.926C749.792 813.083 777.44 838.89 777.44 871.149C777.44 904.328 747.946 930.134 714.768 926.447C708.317 950.411 686.197 967 661.309 967C639.188 967 620.756 955.018 611.541 937.506C589.42 938.428 568.222 926.447 558.082 907.091L558.09 907.092Z" fill="white"/>
<path fill-rule="evenodd" clip-rule="evenodd" d="M145.351 306.908C155.489 297.692 168.392 292.161 182.218 292.161C213.555 292.161 238.44 317.967 238.44 348.383C238.44 376.033 218.165 399.075 191.435 403.682C177.611 449.767 115.859 457.141 90.9754 416.586C66.0896 466.354 -8.56505 454.374 -15.0148 399.074C-46.3517 400.917 -73.9999 375.11 -73.9999 342.851C-73.9999 309.672 -44.506 283.866 -11.328 287.553C-4.87687 263.589 17.2438 247 42.1314 247C64.252 247 82.6845 258.982 91.8994 276.494C114.02 275.572 135.218 287.553 145.359 306.909L145.351 306.908Z" fill="white"/>
<path d="M846.197 215.632V806H702.389V436.81L574.56 806H450.095L321.425 435.969V806H177.618V215.632H353.382L514.01 626.871L671.273 215.632H846.197Z" fill="#EB4D3D"/>
<path opacity="0.5" fill-rule="evenodd" clip-rule="evenodd" d="M443.514 278.936C451.627 271.561 461.95 267.136 473.014 267.136C498.088 267.136 518 287.785 518 312.122C518 334.246 501.776 352.684 480.389 356.369C469.327 393.245 419.916 399.145 400.005 366.694C380.093 406.516 320.358 396.931 315.197 352.682C290.123 354.157 268 333.508 268 307.696C268 281.147 291.6 260.499 318.147 263.449C323.309 244.274 341.009 231 360.923 231C378.623 231 393.371 240.587 400.745 254.6C418.445 253.862 435.406 263.449 443.52 278.936L443.514 278.936Z" fill="white"/>
<path opacity="0.5" fill-rule="evenodd" clip-rule="evenodd" d="M289.837 728.348C304.112 715.372 322.278 707.585 341.745 707.585C385.866 707.585 420.904 743.919 420.904 786.744C420.904 825.673 392.356 858.116 354.722 864.602C335.258 929.488 248.315 939.87 213.279 882.77C178.241 952.841 73.1299 935.974 64.0489 858.114C19.9278 860.708 -18.9998 824.374 -18.9998 778.955C-18.9999 732.239 22.5264 695.906 69.2398 701.097C78.3227 667.357 109.468 644 144.508 644C175.653 644 201.606 660.87 214.58 685.526C245.725 684.228 275.571 701.097 289.848 728.349L289.837 728.348Z" fill="white"/>
<path opacity="0.5" fill-rule="evenodd" clip-rule="evenodd" d="M904.837 794.348C919.112 781.372 937.277 773.585 956.745 773.585C1000.87 773.585 1035.9 809.919 1035.9 852.744C1035.9 891.673 1007.36 924.116 969.722 930.602C950.257 995.488 863.314 1005.87 828.278 948.77C793.24 1018.84 688.129 1001.97 679.048 924.114C634.927 926.708 596 890.374 596 844.955C596 798.239 637.526 761.906 684.239 767.097C693.322 733.357 724.467 710 759.508 710C790.653 710 816.605 726.87 829.579 751.526C860.724 750.228 890.57 767.097 904.848 794.349L904.837 794.348Z" fill="white"/>
<path opacity="0.5" fill-rule="evenodd" clip-rule="evenodd" d="M888.495 911.386C907.515 894.097 931.719 883.721 957.658 883.721C1016.44 883.721 1063.13 932.133 1063.13 989.192C1063.13 1041.06 1025.09 1084.29 974.949 1092.93C949.014 1179.39 833.171 1193.22 786.489 1117.14C739.804 1210.5 599.754 1188.03 587.654 1084.29C528.867 1087.74 477 1039.33 477 978.814C477 916.57 532.33 868.16 594.571 875.076C606.673 830.121 648.171 799 694.859 799C736.357 799 770.935 821.477 788.222 854.33C829.72 852.599 869.487 875.076 888.51 911.387L888.495 911.386Z" fill="white"/>
<path opacity="0.5" fill-rule="evenodd" clip-rule="evenodd" d="M884.495 6.38595C903.515 -10.9034 927.719 -21.2789 953.658 -21.2789C1012.44 -21.2789 1059.13 27.1327 1059.13 84.1923C1059.13 136.061 1021.09 179.289 970.949 187.93C945.014 274.385 829.171 288.218 782.489 212.138C735.804 305.501 595.754 283.027 583.654 179.286C524.867 182.743 473 134.331 473 73.8144C473 11.5699 528.33 -36.84 590.571 -29.9236C602.673 -74.8786 644.171 -106 690.859 -106C732.357 -106 766.935 -83.5225 784.222 -50.6703C825.72 -52.4006 865.487 -29.9236 884.51 6.38679L884.495 6.38595Z" fill="white"/>
<path fill-rule="evenodd" clip-rule="evenodd" d="M-25.1038 1020.02C-43.7169 1036.94 -67.403 1047.09 -92.7861 1047.09C-150.315 1047.09 -196 999.717 -196 943.878C-196 893.119 -158.777 850.817 -109.707 842.36C-84.3272 757.756 29.0368 744.219 74.7194 818.671C120.405 727.306 257.458 749.299 269.298 850.82C326.827 847.437 377.585 894.813 377.585 954.034C377.585 1014.95 323.439 1062.32 262.53 1055.55C250.687 1099.54 210.077 1130 164.388 1130C123.779 1130 89.9401 1108 73.0232 1075.85C32.4136 1077.55 -6.50217 1055.55 -25.1185 1020.02L-25.1038 1020.02Z" fill="white"/>
<path d="M717.841 541.073L691.144 529.695V520.066C691.144 510.873 683.704 502.997 674.075 502.997C666.198 502.997 660.068 508.248 657.882 515.252L631.181 503.873V494.245C631.181 485.052 623.741 477.176 614.112 477.176C606.236 477.176 600.106 482.427 597.92 489.43L567.72 476.299C564.655 377.825 547.15 345 525.703 345C504.695 345 487.187 377.825 483.685 476.299L453.485 489.43C451.297 482.427 445.169 477.176 437.293 477.176C428.1 477.176 420.224 484.616 420.224 494.245V503.873L393.526 515.252C391.337 508.248 385.21 502.997 377.333 502.997C368.141 502.997 360.264 510.437 360.264 520.066V529.695L333.567 541.073C325.25 544.575 320 552.452 320 561.643V585.276C320 588.341 323.065 590.966 326.127 590.527L483.687 562.953C485.436 607.156 489.377 650.486 494.628 686.375L434.669 725.763C430.731 728.388 428.542 732.766 428.542 737.581V748.522C428.542 752.024 432.043 754.649 435.105 753.337L511.26 729.704C513.885 741.083 517.387 751.151 520.452 757.715C522.202 762.093 528.769 762.093 530.518 757.715C533.583 750.712 537.082 741.083 539.71 729.704L615.865 753.337C619.367 754.213 622.429 752.024 622.429 748.522V737.581C622.429 732.766 620.24 728.388 616.302 725.763L556.342 686.375C561.593 650.485 565.535 607.157 567.284 562.953L724.843 590.527C727.908 590.963 730.97 588.777 730.97 585.276V561.643C730.964 552.454 725.713 544.574 717.837 541.073H717.841Z" fill="black" fill-opacity="0.25"/>
<path d="M361.586 672.441C361.586 674.19 363.335 675.506 364.651 675.506C366.401 675.506 367.716 674.193 367.716 672.441L376.252 598.58C377.017 591.96 371.217 586.458 364.647 587.572L361.319 588.136C356.073 589.026 352.443 593.867 353.058 599.152L361.586 672.441Z" fill="url(#paint2_linear_324_660)"/>
<path d="M424.61 664.126C424.61 664.125 424.61 664.125 424.611 664.125C426.36 664.125 427.675 662.812 427.675 661.06L436.189 588.127C436.964 581.493 431.14 575.978 424.557 577.113L421.597 577.624C416.4 578.52 412.792 583.298 413.353 588.542L421.108 661.061C421.545 662.813 422.857 664.126 424.61 664.126C424.61 664.126 424.61 664.126 424.61 664.126V664.126Z" fill="url(#paint3_linear_324_660)"/>
<path d="M657.448 672.441C657.448 674.19 659.197 675.506 660.513 675.506C662.262 675.506 663.578 674.193 663.578 672.441L671.728 599.107C672.313 593.839 668.686 589.029 663.46 588.143L660.151 587.582C653.562 586.465 647.752 592.003 648.552 598.638L657.448 672.441Z" fill="url(#paint4_linear_324_660)"/>
<path d="M600.989 664.124C600.989 664.125 600.989 664.125 600.99 664.125C602.739 664.125 604.054 662.812 604.054 661.06L612.192 588.585C612.782 583.324 609.171 578.514 603.954 577.614L600.974 577.1C594.411 575.969 588.597 581.447 589.336 588.065L597.488 661.059C597.924 662.811 599.237 664.123 600.989 664.124C600.989 664.124 600.989 664.124 600.989 664.124V664.124Z" fill="url(#paint5_linear_324_660)"/>
<path d="M704.278 531.075L677.58 519.696V510.068C677.58 500.875 670.14 492.999 660.511 492.999C652.635 492.999 646.505 498.25 644.319 505.253L617.618 493.875V484.246C617.618 475.054 610.178 467.177 600.549 467.177C592.673 467.177 586.542 472.428 584.356 479.432L554.156 466.301C551.091 367.826 533.586 335.002 512.139 335.002C491.132 335.002 473.624 367.826 470.122 466.301L439.922 479.432C437.733 472.428 431.606 467.177 423.729 467.177C414.537 467.177 406.66 474.617 406.66 484.246V493.875L379.963 505.253C377.774 498.25 371.646 492.999 363.77 492.999C354.577 492.999 346.701 500.439 346.701 510.068V519.696L320.003 531.075C311.687 534.576 306.437 542.453 306.437 551.645V575.277C306.437 578.342 309.502 580.968 312.564 580.528L470.123 552.955C471.872 597.158 475.814 640.488 481.065 676.376L421.105 715.764C417.167 718.39 414.978 722.768 414.978 727.582V738.524C414.978 742.026 418.48 744.651 421.542 743.338L497.696 719.706C500.322 731.084 503.824 741.152 506.889 747.717C508.638 752.094 515.205 752.094 516.954 747.717C520.02 740.713 523.518 731.084 526.147 719.706L602.301 743.338C605.803 744.215 608.865 742.026 608.865 738.524V727.582C608.865 722.768 606.676 718.39 602.738 715.764L542.779 676.376C548.03 640.486 551.971 597.159 553.72 552.955L711.28 580.528C714.345 580.965 717.407 578.779 717.407 575.277V551.645C717.401 542.456 712.15 534.576 704.273 531.075H704.278Z" fill="white"/>
<ellipse cx="488.928" cy="545.214" rx="11.5" ry="157" transform="rotate(-1.25225 488.928 545.214)" fill="#F9F9F9"/>
<ellipse rx="11.5" ry="157" transform="matrix(-0.999761 -0.0218542 -0.0218542 0.999761 536.929 545.214)" fill="#F9F9F9"/>
<path d="M313 573L314.338 551.922C314.744 545.529 318.709 539.907 324.595 537.379L467.5 476" stroke="#E1F0FF" stroke-width="4" stroke-linecap="round"/>
<path d="M712.5 573L711.162 551.922C710.756 545.529 706.791 539.907 700.905 537.379L558 476" stroke="#E1F0FF" stroke-width="4" stroke-linecap="round"/>
<ellipse cx="483.5" cy="409.5" rx="1.5" ry="5.5" transform="rotate(2.3706 483.5 409.5)" fill="#AED6FF"/>
<ellipse cx="482.515" cy="424.504" rx="1.5" ry="5.5" transform="rotate(0.863742 482.515 424.504)" fill="#AED6FF"/>
<ellipse cx="481.5" cy="439.5" rx="1.5" ry="5.5" fill="#AED6FF"/>
<ellipse cx="481.5" cy="454.5" rx="1.5" ry="5.5" fill="#AED6FF"/>
<ellipse cx="481.5" cy="469.5" rx="1.5" ry="5.5" fill="#AED6FF"/>
<ellipse cx="481.5" cy="484.5" rx="1.5" ry="5.5" fill="#AED6FF"/>
<ellipse cx="481.5" cy="499.5" rx="1.5" ry="5.5" fill="#AED6FF"/>
<ellipse cx="481.5" cy="514.5" rx="1.5" ry="5.5" fill="#AED6FF"/>
<ellipse cx="481.5" cy="529.5" rx="1.5" ry="5.5" fill="#AED6FF"/>
<ellipse cx="481.5" cy="544.5" rx="1.5" ry="5.5" fill="#AED6FF"/>
<ellipse cx="481.5" cy="559.5" rx="1.5" ry="5.5" fill="#AED6FF"/>
<ellipse cx="481.5" cy="574.5" rx="1.5" ry="5.5" fill="#AED6FF"/>
<ellipse cx="481.5" cy="591.5" rx="1.5" ry="5.5" fill="#AED6FF"/>
<ellipse cx="482.5" cy="608.5" rx="1.5" ry="5.5" fill="#AED6FF"/>
<ellipse cx="484.044" cy="625.623" rx="1.5" ry="5.5" transform="rotate(-5.19895 484.044 625.623)" fill="#AED6FF"/>
<ellipse rx="1.5" ry="5.5" transform="matrix(-0.999144 0.041363 0.041363 0.999144 542.537 409.557)" fill="#AED6FF"/>
<ellipse rx="1.5" ry="5.5" transform="matrix(-0.999886 0.0150746 0.0150746 0.999886 543.523 424.561)" fill="#AED6FF"/>
<ellipse rx="1.5" ry="5.5" transform="matrix(-1 0 0 1 544.537 439.557)" fill="#AED6FF"/>
<ellipse rx="1.5" ry="5.5" transform="matrix(-1 0 0 1 544.537 454.557)" fill="#AED6FF"/>
<ellipse rx="1.5" ry="5.5" transform="matrix(-1 0 0 1 544.537 469.557)" fill="#AED6FF"/>
<ellipse rx="1.5" ry="5.5" transform="matrix(-1 0 0 1 544.537 484.557)" fill="#AED6FF"/>
<ellipse rx="1.5" ry="5.5" transform="matrix(-1 0 0 1 544.537 499.557)" fill="#AED6FF"/>
<ellipse rx="1.5" ry="5.5" transform="matrix(-1 0 0 1 544.537 514.557)" fill="#AED6FF"/>
<ellipse rx="1.5" ry="5.5" transform="matrix(-1 0 0 1 544.537 529.557)" fill="#AED6FF"/>
<ellipse rx="1.5" ry="5.5" transform="matrix(-1 0 0 1 544.537 544.557)" fill="#AED6FF"/>
<ellipse rx="1.5" ry="5.5" transform="matrix(-1 0 0 1 544.537 559.557)" fill="#AED6FF"/>
<ellipse rx="1.5" ry="5.5" transform="matrix(-1 0 0 1 544.537 574.557)" fill="#AED6FF"/>
<ellipse rx="1.5" ry="5.5" transform="matrix(-1 0 0 1 544.537 591.557)" fill="#AED6FF"/>
<ellipse rx="1.5" ry="5.5" transform="matrix(-1 0 0 1 543.537 608.557)" fill="#AED6FF"/>
<ellipse rx="1.5" ry="5.5" transform="matrix(-0.995886 -0.0906143 -0.0906143 0.995886 541.993 625.68)" fill="#AED6FF"/>
<path d="M493 360L512.5 356.5L532 360V365L512.5 364L493 365V360Z" fill="#6FB5FF"/>
<path fill-rule="evenodd" clip-rule="evenodd" d="M919.757 141.957C933.289 129.656 950.509 122.275 968.963 122.275C1010.79 122.275 1044 156.717 1044 197.312C1044 234.214 1016.94 264.968 981.264 271.116C962.813 332.624 880.397 342.466 847.185 288.338C813.971 354.761 714.333 338.772 705.725 264.966C663.901 267.425 627 232.983 627 189.928C627 145.645 666.364 111.204 710.645 116.124C719.255 84.1412 748.779 62 781.995 62C811.519 62 836.12 77.9916 848.418 101.364C877.942 100.133 906.234 116.124 919.768 141.957L919.757 141.957Z" fill="white"/>
<path opacity="0.5" fill-rule="evenodd" clip-rule="evenodd" d="M934.055 313.621C941.268 307.064 950.448 303.13 960.284 303.13C982.579 303.13 1000.28 321.489 1000.28 343.129C1000.28 362.799 985.858 379.193 966.842 382.47C957.006 415.257 913.074 420.503 895.37 391.651C877.665 427.058 824.553 418.534 819.964 379.192C797.67 380.503 778 362.143 778 339.193C778 315.587 798.983 297.228 822.587 299.851C827.177 282.802 842.914 271 860.621 271C876.358 271 889.472 279.524 896.028 291.983C911.765 291.327 926.846 299.851 934.061 313.622L934.055 313.621Z" fill="white"/>
<path opacity="0.5" fill-rule="evenodd" clip-rule="evenodd" d="M928.24 27.1767C941.471 15.15 958.307 7.93278 976.35 7.93278C1017.24 7.93278 1049.72 41.6083 1049.72 81.2995C1049.72 117.38 1023.26 147.45 988.378 153.461C970.337 213.6 889.756 223.222 857.283 170.299C824.809 235.244 727.389 219.611 718.972 147.447C678.08 149.852 642 116.176 642 74.0804C642 30.7827 680.488 -2.8917 723.784 1.91943C732.202 -29.3517 761.068 -51 793.545 -51C822.411 -51 846.464 -35.3644 858.489 -12.5122C887.355 -13.7158 915.018 1.91946 928.25 27.1773L928.24 27.1767Z" fill="white"/>
</g>
<defs>
<radialGradient id="paint0_radial_324_660" cx="0" cy="0" r="1" gradientUnits="userSpaceOnUse" gradientTransform="translate(507.458 723.54) rotate(-89.6403) scale(723.555 507.133)">
<stop offset="0.2" stop-color="#B8EFFF"/>
<stop offset="0.29" stop-color="#B1EBFC"/>
<stop offset="0.43" stop-color="#9EE0F4"/>
<stop offset="0.58" stop-color="#80CFE6"/>
<stop offset="0.76" stop-color="#55B6D4"/>
<stop offset="0.95" stop-color="#1E97BC"/>
<stop offset="1" stop-color="#0E8EB5"/>
</radialGradient>
<radialGradient id="paint1_radial_324_660" cx="0" cy="0" r="1" gradientUnits="userSpaceOnUse" gradientTransform="translate(508.718 723.541) scale(787.344 550.468)">
<stop offset="0.2" stop-color="#FFF5BD" stop-opacity="0.26"/>
<stop offset="0.43" stop-color="white" stop-opacity="0.33"/>
<stop offset="0.77" stop-color="white" stop-opacity="0.4"/>
<stop offset="1" stop-color="#0E8EB5" stop-opacity="0"/>
</radialGradient>
<linearGradient id="paint2_linear_324_660" x1="364.871" y1="585.345" x2="364.871" y2="675.506" gradientUnits="userSpaceOnUse">
<stop stop-color="#FCCA13"/>
<stop offset="1" stop-color="white" stop-opacity="0"/>
</linearGradient>
<linearGradient id="paint3_linear_324_660" x1="425.048" y1="574.84" x2="425.048" y2="664.126" gradientUnits="userSpaceOnUse">
<stop stop-color="#FCCA13"/>
<stop offset="1" stop-color="white" stop-opacity="0"/>
</linearGradient>
<linearGradient id="paint4_linear_324_660" x1="659.86" y1="585.344" x2="659.86" y2="675.506" gradientUnits="userSpaceOnUse">
<stop stop-color="#FCCA13"/>
<stop offset="1" stop-color="white" stop-opacity="0"/>
</linearGradient>
<linearGradient id="paint5_linear_324_660" x1="600.551" y1="574.839" x2="600.551" y2="664.125" gradientUnits="userSpaceOnUse">
<stop stop-color="#FCCA13"/>
<stop offset="1" stop-color="white" stop-opacity="0"/>
</linearGradient>
</defs>
</svg>
